# xmcd
#
# Track frame offsets: 
#        150
#        13110
#        29960
#        45829
#        60440
#        74861
#        92588
#        107791
#        120213
#        150681
#        165720
#        185094
#        196576
#        209230
#        226563
#
# Disc length: 3237 seconds
#
# Revision: 0
# Processed by: cddbd v1.5.2PL0 Copyright (c) Steve Scherf et al.
# Submitted via: ExactAudioCopy v1.0b1
#
DISCID=c90ca30f
DTITLE=Jimi Hendrix Experience  - Are You Experienced (1967) [VINYL] {
DTITLE=US Legacy 2010 and 4 Bonus - By Prof. Stoned}  
DYEAR=1900
DGENRE=
TTITLE0=Purple haze
TTITLE1=Manic depression
TTITLE2=Hey Joe
TTITLE3=Love or confusion
TTITLE4=May this be love
TTITLE5=I don't live today
TTITLE6=The wind cries Mary
TTITLE7=Fire
TTITLE8=Third stone from the sun
TTITLE9=Foxey lady
TTITLE10=Are you experienced?
TTITLE11=Can you see me?
TTITLE12=Remember
TTITLE13=Red house
TTITLE14=Highway chile
EXTD=
EXTT0=
EXTT1=
EXTT2=
EXTT3=
EXTT4=
EXTT5=
EXTT6=
EXTT7=
EXTT8=
EXTT9=
EXTT10=
EXTT11=
EXTT12=
EXTT13=
EXTT14=
PLAYORDER=
